# xmcd
#
# Track frame offsets: 
#        150
#        5037
#        21034
#        25504
#        48274
#        52318
#        58475
#        62740
#        80670
#        103015
#        104895
#        109206
#        111947
#        117499
#        121831
#        129280
#        133163
#        143736
#        148790
#        168786
#        169820
#        174223
#        181914
#        205399
#        213434
#        219059
#        226460
#        231113
#        235376
#
# Disc length: 3424 seconds
#
# Revision: 0
# Processed by: cddbd v1.5.2PL0 Copyright (c) Steve Scherf et al.
# Submitted via: ExactAudioCopy v1.2
#
DISCID=ab0d5e1d
DTITLE=Hobo - A magyar gavallér
DYEAR=2017
DGENRE=Zenés vers
TTITLE0=Oráció, melly a vígjáték (Kanyóné) előtt mondatott
TTITLE1=„Ó édes dominatiom…”
TTITLE2=„Sok ezerjókkal…”
TTITLE3=A poéta gyönyörködése
TTITLE4=Kifakadás
TTITLE5=A hír
TTITLE6=A fösvény
TTITLE7=A magyar gavallér
TTITLE8=Szerelemdal a ’Tsikó-bőrös Kulatshoz
TTITLE9=Közhíré bocsájtás
TTITLE10=Egy individuale dátum az asszonyi állhatatlanságról
TTITLE11=Egy fiatal házasulandónak habozása
TTITLE12=Lipittlotty
TTITLE13=Óda az árnyékszékhez
TTITLE14=A szeplő
TTITLE15=A patyolat
TTITLE16=A boldogság
TTITLE17=Az én poézisom természete
TTITLE18=A tavasz
TTITLE19=Pata község lakosainak írott vers
TTITLE20=A főtiszteletű, méltóságú és tekintetű Rendekhez
TTITLE21=Marosvásárhelyi gondolatok
TTITLE22=Az estvéhez
TTITLE23=Levél Lillához
TTITLE24=A magánossághoz
TTITLE25=Csurgó prédikáció
TTITLE26=Tüdőgyulladásomról
TTITLE27=Halotti versek
TTITLE28=Szabadság
EXTD=
EXTT0=
EXTT1=
EXTT2=
EXTT3=
EXTT4=
EXTT5=
EXTT6=
EXTT7=
EXTT8=
EXTT9=
EXTT10=
EXTT11=
EXTT12=
EXTT13=
EXTT14=
EXTT15=
EXTT16=
EXTT17=
EXTT18=
EXTT19=
EXTT20=
EXTT21=
EXTT22=
EXTT23=
EXTT24=
EXTT25=
EXTT26=
EXTT27=
EXTT28=
PLAYORDER=
